<?xml version="1.0" encoding="utf-8"?>
<!-- Generator: Adobe Illustrator 22.1.0, SVG Export Plug-In . SVG Version: 6.00 Build 0)  -->
<svg version="1.1" id="Layer_1" xmlns:serif="http://www.serif.com/"
	 xmlns="http://www.w3.org/2000/svg" xmlns:xlink="http://www.w3.org/1999/xlink" x="0px" y="0px" viewBox="0 0 843.5 841.9"
	 style="enable-background:new 0 0 843.5 841.9;" xml:space="preserve">
<style type="text/css">
	.st0{fill:#FF9800;}
	.st1{fill:#FFFFFF;}
	.st2{fill:none;stroke:#FFFFFF;stroke-width:25;stroke-miterlimit:10;}
</style>
<rect x="1.6" y="0" class="st0" width="841.9" height="841.9"/>
<path class="st1" d="M698.9,291.8c-6.3-8.8-18.7-3.9-22.4,5.8c-2.4,6.2-1,23.2-17.5,33c-5.6,3.3-12,4.8-18.5,4.8l-38.7-0.1
	L601,116.4c0-6.9-2-13.6-6-19.2c-4.4-6.2-11.9-12.2-24.5-12.4c-24.7-0.5-132.1-0.5-147.1-0.5c-1.1,0-1.8,0-1.8,0
	c-15,0-122.4,0-147.1,0.5C262,85,254.5,91,250.1,97.2c-4,5.6-6,12.4-6,19.2l-0.9,218.9l-38.7,0.1c-6.5,0-12.9-1.5-18.5-4.8
	c-16.5-9.8-15.1-26.8-17.5-33c-3.7-9.7-16.1-14.6-22.4-5.8c-2,2.7-2.7,6.1-2.5,9.5c4.8,59.1,54.5,57.8,54.5,57.8h448.4
	c0,0,49.7,1.4,54.5-57.8C701.6,297.9,700.8,294.5,698.9,291.8z M422.9,335.5L422.9,335.5l-152.3,0c0,0,0.4-209.1,1.2-220
	c0.5-6.4,9.3-6.4,9.3-6.4h282.9c0,0,8.8,0,9.3,6.4c0.8,10.9,1.2,220,1.2,220H422.9z"/>
<path class="st1" d="M542.9,391.7c-41.8,0-76.6,30.4-83.3,70.3H237.1v0c-0.3,0-0.5,0-0.8,0c-10.2,0-18.6,6.5-18.6,14.4
	c0,7.9,8.2,14.3,18.3,14.4v25.1c0,8.1,6.7,14.8,14.8,14.8c8.1,0,14.8-6.7,14.8-14.8v-25.1h13.9c0,0.1,0,0.2,0,0.4v12.1
	c0,8.1,6.7,14.8,14.8,14.8c8.1,0,14.8-6.7,14.8-14.8v-12.1c0-0.1,0-0.2,0-0.4h150.6c6.9,39.7,41.6,69.8,83.2,69.8
	c46.7,0,84.5-37.8,84.5-84.5C627.4,429.5,589.6,391.7,542.9,391.7z M542.9,530.1c-30.2,0-54.7-24.5-54.7-54.7
	c0-30.2,24.5-54.7,54.7-54.7c30.2,0,54.7,24.5,54.7,54.7C597.6,505.6,573.1,530.1,542.9,530.1z"/>
<circle class="st1" cx="660.8" cy="473.5" r="13.2"/>
<circle class="st1" cx="716.1" cy="491.6" r="13.2"/>
<circle class="st1" cx="740.8" cy="541.4" r="13.2"/>
<circle class="st1" cx="743.3" cy="591.7" r="13.2"/>
<circle class="st1" cx="731.1" cy="644.8" r="13.2"/>
<circle class="st1" cx="741.8" cy="700.9" r="13.2"/>
<circle class="st1" cx="788.4" cy="733.8" r="13.2"/>
<path class="st2" d="M634.2,690.5c-9.5,15.8-46.3,50.8-97.9,52.3c-72.3,2.2-102.6-32.4-112.6-48.2c-0.5-0.9-1.8-0.9-2.3,0
	c-10,15.9-40.2,50.4-112.6,48.2c-51.7-1.6-88.5-36.5-97.9-52.3c-2.2-3.8,1.4-8.9,5.4-7.3c41.9,17.3,77.7,8.4,77.7,8.4
	s32.7-4,36.3-58.7c0.3-4.2,1.1-8.3,2.5-12.2c0.6-1.6,1.3-3.2,2-4.3c26.8-44.1,72.9-23.1,87.1-15.2c0.4,0.2,0.9,0.2,1.3,0
	c14.2-7.9,60.3-28.9,87.1,15.2c0.7,1.1,1.4,2.7,2,4.3c1.5,3.9,2.2,8,2.5,12.2c3.6,54.6,36.3,58.7,36.3,58.7s35.9,8.8,77.7-8.4
	C632.9,681.6,636.5,686.8,634.2,690.5z"/>
</svg>
