<?xml version="1.0" encoding="UTF-8" standalone="no"?><!DOCTYPE svg PUBLIC "-//W3C//DTD SVG 1.1//EN" "http://www.w3.org/Graphics/SVG/1.1/DTD/svg11.dtd"><svg width="100%" height="100%" viewBox="0 0 350 350" version="1.1" xmlns="http://www.w3.org/2000/svg" xmlns:xlink="http://www.w3.org/1999/xlink" xml:space="preserve" xmlns:serif="http://www.serif.com/" style="fill-rule:evenodd;clip-rule:evenodd;stroke-linejoin:round;stroke-miterlimit:1.41421;"><rect x="0" y="0" width="350" height="350" style="fill:#df0024;"/><g id="Mentor-Palokaj" serif:id="Mentor Palokaj"><path d="M218.895,232.886c0.308,0.926 -0.175,1.171 -0.984,1.189c-3.414,0.086 -6.837,0.396 -10.238,0.241c-11.3,-0.518 -22.568,-0.195 -33.839,0.639c-10.323,0.767 -20.65,1.464 -30.933,2.689c-0.533,0.061 -1.242,0.317 -1.57,-0.143c-0.408,-0.573 0.247,-1.1 0.517,-1.591c2.496,-4.528 5.187,-8.948 7.453,-13.603c0.5,-2.053 1.818,-3.707 2.712,-5.569c2.874,-5.979 6.556,-11.57 8.587,-17.954c0.893,-2.809 0.944,-5.739 1.167,-8.624c0.492,-6.4 0.901,-12.809 1.608,-19.185c0.448,-4.03 -0.037,-7.984 -0.366,-11.976c-0.297,-3.59 -1.112,-7.138 -0.936,-10.767c-0.804,-6.802 -1.588,-13.61 -2.419,-20.409c-0.618,-5.06 -1.295,-10.11 -1.947,-15.168c0.075,-2.863 2.16,-4.661 3.592,-6.805c1.532,0.576 2.607,1.787 3.699,2.888c2.671,2.695 5.511,5.207 8.239,7.839c1.824,1.761 4.813,1.701 6.624,-0.05c3.516,-3.396 7.111,-6.707 10.698,-10.023c0.355,-0.33 0.694,-0.732 1.273,-0.622c0.979,2.177 1.326,4.55 2.135,6.779c0.334,2.224 0.622,4.454 0.442,6.706c-0.105,1.318 -0.218,2.629 -0.215,3.953c0.011,13.168 0.078,26.335 -0.03,39.503c-0.043,4.853 0.732,9.51 2.15,14.117c1.668,5.41 3.183,10.867 4.993,16.231c0.218,0.869 0.38,1.757 0.765,2.578c0.562,2.079 1.24,4.127 1.881,6.186c0.225,0.742 0.357,1.514 0.674,2.23c0.06,0.14 0.103,0.287 0.132,0.436c0.181,0.961 0.457,1.889 0.937,2.75c0.266,0.721 0.64,1.388 1.016,2.056c2.758,5.132 5.436,10.309 8.245,15.414c1.218,2.332 2.426,4.67 3.659,6.995c0.185,0.352 0.392,0.659 0.279,1.07" style="fill:#fefefe;"/><path d="M191.832,105.882c-4.058,3.791 -8.115,7.58 -12.167,11.373c-1.447,1.354 -4.923,1.346 -6.397,-0.05c-3.997,-3.778 -7.979,-7.568 -11.968,-11.355c-0.63,-2.976 -0.297,-6.036 -0.787,-9.03c-0.312,-1.905 -0.667,-3.785 -1.394,-5.584c-0.355,-0.883 -0.845,-1.443 -1.89,-1.572c-1.69,-0.208 -2.814,-1.246 -3.265,-2.879c-0.912,-3.299 -1.528,-6.641 -1.191,-10.096c0.047,-0.483 0.106,-1.047 -0.087,-1.457c-1.006,-2.136 -0.888,-4.391 -0.856,-6.651c0.021,-1.484 0.011,-2.97 -0.014,-4.454c-0.018,-1.005 0.317,-1.926 0.53,-2.886c0.882,-3.971 2.742,-7.485 5.514,-10.31c2.717,-2.766 5.06,-6.318 9.61,-6.562c0.901,-0.049 1.85,-0.423 2.653,-0.872c3.938,-2.204 7.903,-1.53 11.8,-0.061c4.07,1.535 7.686,3.8 10.305,7.418c0.61,0.843 1.31,1.637 2.057,2.362c2.511,2.434 3.7,5.461 3.851,8.864c0.148,3.296 0.25,6.6 -0.229,9.894c-0.161,1.12 -0.355,2.313 0.479,3.329c0.094,0.114 0.151,0.321 0.124,0.467c-0.652,3.474 0.207,7.061 -0.776,10.508c-0.4,1.4 -0.898,2.699 -2.474,3.265c-0.799,0.285 -1.026,1.07 -1.05,1.904c-0.056,2.144 -0.702,4.039 -1.969,5.833c-1.017,1.443 -0.315,3.318 -0.562,4.989c-0.173,1.172 0.086,2.407 0.153,3.613" style="fill:#080808;"/><path d="M96.75,153.877c-0.007,1.859 -0.838,3.072 -2.598,3.82c-1.519,0.649 -3.016,1.351 -4.555,1.942c-0.825,0.316 -0.946,0.666 -0.577,1.467c0.942,2.048 1.815,4.131 2.659,6.224c0.695,1.719 0.134,3.151 -1.516,4c-0.636,0.328 -1.298,0.612 -1.973,0.847c-1.176,0.409 -2.127,0.937 -1.82,2.447c0.04,0.196 -0.065,0.433 -0.138,0.638c-0.856,2.424 -6.787,4.845 -9.107,3.747c-0.976,-0.46 -1.489,-1.27 -1.89,-2.195c-1.157,-2.677 -2.38,-5.331 -3.432,-8.047c-0.429,-1.109 -0.934,-1.104 -1.842,-0.711c-6.36,2.758 -12.733,5.486 -19.101,8.227c-3.486,1.502 -6.955,3.044 -10.461,4.499c-1.066,0.442 -1.222,0.896 -0.721,1.949c1.157,2.431 2.173,4.934 3.229,7.415c1.302,3.058 0.574,4.832 -2.517,6.171c-0.909,0.396 -1.824,0.778 -2.733,1.171c-1.516,0.654 -2.975,0.49 -4.147,-0.632c-0.705,-0.673 -1.277,-0.695 -2.023,-0.278c-0.048,0.028 -0.1,0.046 -0.151,0.068c-4.918,2.058 -5.453,1.84 -7.479,-3.019c-0.509,-1.219 -1.091,-2.411 -1.54,-3.648c-0.348,-0.966 -0.847,-1.125 -1.738,-0.703c-1.491,0.71 -3.006,1.37 -4.525,2.015c-2.454,1.045 -4.785,0.234 -5.674,-1.936c-0.898,-2.196 0.203,-4.348 2.703,-5.371c1.578,-0.646 3.117,-1.391 4.708,-2.004c0.784,-0.302 0.845,-0.665 0.517,-1.365c-0.702,-1.493 -1.386,-3 -1.986,-4.536c-0.748,-1.914 -0.163,-3.3 1.69,-4.222c0.443,-0.217 0.912,-0.382 1.37,-0.572c1.267,-0.522 2.495,-0.886 2.353,-2.812c-0.089,-1.202 0.919,-2.19 2.138,-2.699c1.167,-0.487 2.329,-0.987 3.505,-1.453c2.451,-0.967 4.291,-0.243 5.361,2.161c0.963,2.161 1.886,4.34 2.773,6.533c0.331,0.82 0.676,1.103 1.59,0.705c8.98,-3.909 17.978,-7.78 26.97,-11.661c0.96,-0.414 1.902,-0.877 2.879,-1.245c0.916,-0.348 1.12,-0.779 0.67,-1.728c-1.012,-2.139 -1.91,-4.332 -2.81,-6.521c-0.973,-2.366 -0.238,-4.218 2.079,-5.286c1.15,-0.528 2.313,-1.037 3.5,-1.473c1.487,-0.551 2.963,-0.526 4.135,0.684c0.615,0.634 1.119,0.699 1.865,0.295c0.821,-0.441 1.698,-0.786 2.568,-1.131c1.743,-0.687 3.304,-0.082 4.102,1.623c0.652,1.397 1.356,2.787 1.815,4.248c0.421,1.337 1.066,1.207 2.063,0.746c1.597,-0.739 3.2,-1.491 4.864,-2.047c2.55,-0.854 4.96,0.985 4.948,3.653" style="fill:#080808;"/><path d="M295.573,174.917c-4.248,-3.5 -4.291,-8.564 -0.177,-11.736c5.119,-3.946 10.862,-4.402 16.909,-2.646c0.37,0.106 0.744,0.223 1.087,0.391c0.485,0.237 0.889,0.156 1.125,-0.301c0.361,-0.697 -0.352,-0.701 -0.673,-0.829c-3.406,-1.348 -6.955,-1.633 -10.546,-1.127c-1.288,0.183 -2.193,0.245 -2.607,-1.304c-0.253,-0.941 -0.933,-1.754 -1.698,-2.401c-0.753,-0.638 -0.506,-0.993 0.185,-1.476c4.171,-2.922 11.573,-2.683 15.304,0.788c1.614,1.503 3.092,3.201 4.59,4.834c2.183,2.377 1.518,5.499 -1.377,7.488c-3.412,2.343 -7.272,3.046 -11.333,2.623c-2.421,-0.25 -4.775,-0.839 -6.858,-2.185c-0.454,-0.293 -0.839,-0.315 -1.143,0.121c-0.431,0.624 0.229,0.759 0.54,0.943c4.536,2.651 9.399,2.808 14.387,1.767c2.244,-0.469 4.294,-1.378 5.975,-2.996c3.149,-3.032 3.04,-6.954 -0.346,-9.703c-0.91,-0.74 -1.653,-1.565 -2.358,-2.489c-2.798,-3.654 -6.794,-4.445 -11.057,-4.324c-2.799,0.081 -5.451,0.839 -7.677,2.639c-0.813,0.657 -1.337,0.032 -1.926,-0.238c-5.077,-2.317 -11.591,-0.789 -13.921,3.908c-1.192,2.408 -2.578,3.837 -4.899,4.986c-2.152,1.065 -3.124,3.263 -2.745,5.742c0.42,2.744 2.268,4.514 4.801,5.125c2.138,0.515 4.013,0.669 4.589,3.401c0.275,1.291 1.908,1.875 3.296,2.207c0.476,0.115 0.791,0.384 0.732,0.93c-0.059,0.551 -0.46,0.551 -0.856,0.498c-4.832,-0.643 -9.25,-2.29 -12.51,-6.04c-5.01,-5.766 -4.141,-13.451 1.872,-18.181c0.045,-0.034 0.088,-0.066 0.134,-0.097c3.291,-2.155 6.797,-3.866 9.495,-7.01c2.05,-2.393 5.505,-2.977 8.651,-3.243c5.773,-0.487 11.356,0.065 15.935,4.241c0.514,0.467 1.211,0.481 1.846,0.639c3.649,0.917 6.874,2.411 8.422,6.186c0.226,0.551 0.681,0.84 1.151,1.136c1.081,0.675 2.056,1.478 2.833,2.5c2.257,2.966 2.301,5.824 0.014,8.765c-0.719,0.925 -1.254,1.819 -1.51,3.002c-0.688,3.186 -2.962,4.935 -5.935,5.807c-0.942,0.277 -1.302,0.635 -1.448,1.628c-0.548,3.753 -3.817,6.344 -7.568,6.072c-3.481,-0.253 -6.699,-1.318 -9.463,-3.492c-0.699,-0.552 -1.194,-0.762 -1.999,-0.224c-1.302,0.872 -2.822,0.843 -4.318,0.762c-2.701,-0.149 -3.98,-1.666 -3.638,-4.355c0.127,-0.986 0.426,-1.93 0.923,-2.807c0.441,-0.78 0.912,-1.663 1.738,-1.921c1.058,-0.331 1.133,0.956 1.653,1.483c1.501,1.525 3.09,2.961 4.649,4.411c3.543,3.302 10.982,2.758 14.222,-0.817c0.277,-0.305 0.794,-0.615 0.382,-1.093c-0.479,-0.554 -0.859,-0.07 -1.241,0.243c-3.586,2.926 -7.473,3.599 -11.66,1.433c-2.164,-1.119 -3.105,-3.283 -2.624,-5.68c0.113,-0.55 0.361,-1.234 -0.408,-1.331c-0.733,-0.093 -0.727,0.694 -0.8,1.205c-0.091,0.634 -0.078,1.284 -0.121,2.142" style="fill:#080808;"/><path d="M275.388,206.084c0.32,0.072 0.638,0.161 0.964,0.215c1.735,0.286 3.164,0.138 4.541,-1.374c2.971,-3.261 5.968,-6.458 8.005,-10.424c0.966,-1.878 1.533,-3.855 1.907,-5.935c0.181,-1.011 0.084,-2.631 1.735,-2.543c1.453,0.079 2.217,1.115 2.559,2.597c0.748,3.244 -0.169,6.226 -1.273,9.169c-1.439,3.834 -1.116,5.198 2.07,7.695c2.894,2.271 6.261,3.266 9.852,3.221c5.226,-0.062 10.095,1.429 14.941,3.056c1.525,0.511 3.099,1.262 3.512,3.159c0.118,0.535 0.624,0.564 1.016,0.721c0.751,0.296 1.321,0.777 1.671,1.512c0.277,0.576 0.36,1.162 0.021,1.736c-0.36,0.613 -0.962,0.452 -1.488,0.357c-0.713,-0.129 -1.412,-0.431 -1.665,0.649c-0.104,0.449 -0.549,0.522 -0.944,0.481c-1.752,-0.18 -3.535,0.159 -5.26,-0.269c-0.805,-0.202 -1.52,0.046 -2.276,0.129c-0.568,0.065 -0.71,0.253 -0.587,0.859c0.256,1.226 -0.487,1.547 -1.544,1.447c-4.227,-0.396 -8.367,-0.242 -12.597,0.565c-4.779,0.91 -9.716,0.907 -14.604,0.885c-3.181,-0.013 -6.367,-0.153 -9.541,0.172c-2.327,1.381 -5.378,0.716 -6.454,-1.622c-1.935,-4.208 -2.482,-8.402 0.812,-12.325c0.917,-1.09 1.694,-2.292 2.755,-3.264c0.535,-0.492 1.079,-0.941 1.872,-0.869" style="fill:#080808;"/><path d="M71.221,227.603c-5.833,0.051 -11.656,-0.178 -17.457,-0.759c-2.713,-0.274 -5.347,-1.079 -8.134,-1.014c-1.856,0.04 -3.715,0.093 -5.563,0.231c-0.951,0.072 -1.724,-0.143 -1.534,-1.106c0.255,-1.289 -0.569,-1.284 -1.262,-1.273c-2.08,0.03 -4.159,0.175 -6.238,0.283c-0.73,0.037 -1.449,0.102 -1.74,-0.821c-0.209,-0.664 -0.729,-0.535 -1.227,-0.414c-0.692,0.17 -1.426,0.481 -1.836,-0.457c-0.42,-0.958 -0.114,-1.945 0.661,-2.33c2.4,-1.19 3.19,-4.222 6.079,-4.91c2.611,-0.622 5.234,-1.279 7.799,-2.07c3.131,-0.965 6.366,-0.26 9.496,-0.925c2.559,-0.541 4.971,-1.354 7.079,-2.982c3.01,-2.321 3.526,-4 2.116,-7.555c-1.11,-2.793 -1.859,-5.639 -1.459,-8.682c0.139,-1.057 0.354,-2.066 1.302,-2.741c1.329,-0.948 2.446,-0.609 2.843,0.976c0.588,2.338 1.024,4.688 2.115,6.902c2.259,4.589 5.856,8.074 9.25,11.741c0.413,0.447 0.903,0.283 1.381,0.326c0.988,0.086 1.955,-0.383 2.949,-0.1c1.085,0.145 1.704,0.95 2.32,1.711c2.942,3.641 4.251,7.875 4.377,12.495c0.059,2.171 -0.524,2.706 -2.748,2.984c-2.991,0.371 -6.017,0.342 -8.995,0.842c-0.571,0.094 -1.085,-0.079 -1.574,-0.352" style="fill:#080808;"/><path d="M291.54,152.897c3.294,0.342 6.447,1.556 8.147,5.204c0.388,0.836 0.275,1.221 -0.643,1.573c-2.442,0.936 -4.654,2.242 -6.231,4.431c-1.353,1.872 -1.986,3.905 -1.515,6.208c0.132,0.636 0.11,1.127 -0.5,1.576c-1.458,1.078 -2.481,2.487 -2.904,4.285c-0.104,0.449 -0.204,0.829 -0.844,0.747c-1.7,-0.22 -3.307,-2.187 -2.822,-3.847c0.449,-1.547 -0.293,-1.335 -1.287,-1.271c-2.661,0.177 -5.047,-0.468 -6.651,-2.773c-1.434,-2.059 -0.938,-4.625 1.065,-6.156c4.05,-3.097 9.27,-1.789 11.473,2.886c0.184,0.385 0.369,0.727 0.84,0.555c0.584,-0.213 0.379,-0.702 0.293,-1.125c-0.498,-2.424 -3.201,-4.557 -6.355,-5.015c-1.692,-0.245 -1.811,-0.458 -1.143,-2.031c1.323,-3.121 4.896,-5.284 9.077,-5.247" style="fill:#080808;"/><path d="M71.221,227.603c3.772,-0.337 7.542,-0.716 11.32,-0.978c0.985,-0.069 1.368,-0.403 1.405,-1.344c0.233,-6.025 -1.533,-11.247 -6.104,-15.358c1.444,-0.605 2.925,-0.651 4.429,-0.274c1.995,1.253 4.251,2.131 5.811,4.014c0.623,0.191 0.968,0.678 1.31,1.189c2.427,3.627 3.559,7.649 3.629,11.983c0.026,1.664 -0.508,2.355 -2.371,2.882c-3.123,0.88 -6.138,2.102 -9.286,2.893c-1.014,0.253 -1.912,0.837 -2.957,0.99c-3.314,-0.899 -5.258,-3.438 -7.186,-5.997" style="fill:#fefefe;"/><path d="M275.388,206.084c-2.999,2.193 -5.467,4.983 -6.333,8.54c-0.756,3.107 0.14,6.29 2.16,8.951c0.527,0.697 1.378,0.851 2.236,0.797c0.982,-0.059 1.964,-0.138 2.949,-0.208l6.554,0c-2.502,2.618 -4.42,5.371 -7.291,7.157c-0.692,0.431 -1.34,1.23 -2.351,0.765c-0.474,-2.002 -1.263,-3.886 -2.508,-5.516c-2.206,-2.887 -4.45,-5.747 -6.78,-8.532c-0.845,-1.012 -1.074,-1.942 -0.652,-3.164c0.902,-2.594 2.304,-4.861 4.204,-6.837c0.602,-0.627 1.331,-1.178 1.444,-2.144c2.126,-0.045 4.278,-0.95 6.368,0.191" style="fill:#fefefe;"/><path d="M314.192,184.242c1.396,-1.375 2.528,-2.911 2.89,-4.894c0.083,-0.468 0.285,-0.767 0.739,-0.99c4.491,-2.204 4.488,-2.211 6.858,-6.549c1.779,2.065 1.575,5.537 -0.484,7.969c-2.355,2.779 -5.435,4.219 -8.957,4.841c-0.425,0.089 -0.949,0.446 -1.046,-0.377" style="fill:#080908;"/><path d="M78.407,233.6c0.383,-0.7 1.113,-0.826 1.771,-1.036c3.513,-1.111 7.019,-2.258 10.56,-3.277c1.509,-0.436 1.969,-1.27 1.884,-2.774c-0.268,-4.738 -1.574,-9.081 -4.54,-12.85c0.575,-0.229 0.711,-0.24 1.18,0.406c1.829,2.505 3.093,5.265 3.782,8.301c0.308,1.355 0.329,2.711 0.323,4.079c-0.008,2.361 -0.657,3.098 -2.961,3.785c-3.457,1.033 -6.885,2.16 -10.317,3.274c-0.457,0.148 -0.862,0.455 -1.29,0.687c-0.308,-0.081 -0.286,-0.38 -0.392,-0.595" style="fill:#070707;"/><path d="M223.152,157.947c-6.977,-0.473 -13.953,-0.955 -20.933,-1.406c-0.599,-0.041 -0.892,-0.24 -0.992,-0.829c-0.306,-1.788 -0.602,-3.58 -0.982,-5.355c-0.151,-0.699 0.231,-0.856 0.713,-1.034c3.248,-1.196 6.495,-2.391 9.737,-3.598c0.492,-0.183 0.904,-0.278 1.34,0.175c3.762,3.914 7.539,7.812 11.31,11.714c-0.064,0.11 -0.129,0.222 -0.193,0.333" style="fill:#fefefe;"/><path d="M162.073,148.232c0.595,4.886 1.197,9.77 1.784,14.655c0.502,4.196 -0.137,8.352 -0.48,12.518c-0.514,6.257 -1.045,12.51 -1.55,18.767c-0.183,2.266 -0.527,4.518 -1.447,6.587c-3.284,7.391 -7.078,14.524 -11.079,21.548c-0.608,-0.389 -0.333,-0.866 -0.08,-1.286c3.187,-5.262 5.67,-10.896 8.594,-16.302c2.054,-3.793 3.029,-7.907 3.379,-12.247c0.42,-5.227 0.622,-10.469 1.198,-15.688c0.479,-4.345 1.06,-8.72 0.711,-13.112c-0.333,-4.188 -0.854,-8.362 -1.237,-12.545c-0.088,-0.958 -0.331,-1.964 0.207,-2.895" style="fill:#040404;"/><path d="M237.625,222.994c-2.48,1.91 -2.502,1.907 -3.82,-0.877c-1.769,-3.729 -3.526,-7.464 -5.252,-11.212c-0.23,-0.489 -0.967,-1.138 -0.251,-1.576c0.732,-0.447 1.313,0.267 1.703,0.866c1.47,2.266 3.07,4.429 4.854,6.457c1.198,1.364 2.4,2.723 3.594,4.093c0.245,0.282 0.458,0.592 0.654,0.85c-0.306,0.769 -0.971,1.008 -1.482,1.399m-34.305,11.723c1.254,0.067 2.511,0.172 3.765,0.22c-1.254,-0.029 -2.511,-0.091 -3.765,-0.22m-3.796,0c-0.536,0.046 -1.068,0.072 -1.598,0.091c-0.078,0.005 -0.156,0.011 -0.232,0.016c-2.838,0.164 -5.676,-0.092 -7.243,-0.145c1.841,0.027 4.582,0.237 7.475,0.129c1.765,-0.108 3.538,-0.272 5.284,-0.099c-1.23,-0.065 -2.459,-0.095 -3.686,0.008m-79.058,-8.145c-0.41,0.262 -0.667,0.216 -0.676,-0.336c2.707,-2.596 4.518,-5.994 7.507,-8.354c-2.02,3.105 -2.736,7.218 -6.831,8.69m152.798,3.953c-0.538,-2.005 -1.69,-3.67 -2.944,-5.276c-1.921,-2.465 -3.748,-5.005 -5.819,-7.346c-0.961,-1.087 -1.028,-2.163 -0.522,-3.478c0.965,-2.508 2.512,-4.601 4.269,-6.584c0.48,-0.541 1.228,-1.02 0.773,-1.949c-0.169,-0.214 -0.296,-0.489 -0.514,-0.631c-3.477,-2.312 -7.208,-4.287 -9.883,-7.636c-0.1,-0.124 -0.25,-0.247 -0.397,-0.288c-2.355,-0.632 -2.985,-2.58 -3.491,-4.598c-0.927,-3.697 -2.176,-7.262 -3.898,-10.679c-1.487,-2.952 -2.734,-6.024 -3.363,-9.291c-1.488,-7.724 -3.143,-15.411 -5.024,-23.049c-1.711,-6.947 -3.414,-13.897 -6.086,-20.561c-0.963,-2.404 -2.545,-4.019 -5.085,-4.771c-6.543,-1.935 -13.127,-3.761 -19.57,-5.988c-5.69,-1.967 -11.957,-2.177 -17.149,-5.632c-0.929,1.055 -0.284,2.209 -0.187,3.315c0.248,2.814 -0.336,5.588 -0.325,8.397c0.043,12.772 0.081,25.548 -0.014,38.322c-0.035,4.678 0.748,9.172 2.059,13.623c2.08,7.061 4.223,14.102 6.438,21.122c1.238,3.92 2.067,7.994 4.015,11.679c2.717,4.881 5.26,9.856 7.896,14.78c1.808,2.919 3,6.179 5.004,8.994c0.307,0.433 0.192,0.843 -0.132,1.157c-0.01,0.019 -0.018,0.038 -0.029,0.054c-0.054,0.043 -0.116,0.061 -0.172,0.099c-0.075,0.054 -0.142,0.114 -0.231,0.159c-0.02,0.003 -0.038,0.003 -0.06,0.005c-0.642,0.307 -1.356,0.35 -2.05,0.356c-0.501,0.002 -1.001,0.016 -1.503,0.026c-2.721,0.197 -5.45,0.192 -8.18,0.081c2.728,0.068 5.454,-0.032 8.18,-0.081c1.186,-0.086 2.373,-0.201 3.553,-0.382c0.1,-0.045 0.197,-0.104 0.291,-0.164c0.07,-0.05 0.143,-0.096 0.201,-0.153c0.302,-0.538 0.48,-1.052 -0.325,-1.358c-0.85,0.707 -1.835,0.914 -2.925,0.892c-3.788,-0.075 -7.574,0.089 -11.367,0.057c-9.299,-0.086 -18.599,-0.277 -27.898,0.522c-5.804,0.497 -11.636,0.804 -17.455,1.181c-5.265,0.342 -10.517,1.028 -15.771,1.599c-0.47,0.048 -1.084,0.346 -1.384,-0.152c-0.279,-0.465 0.195,-0.923 0.433,-1.34c1.963,-3.446 3.898,-6.909 5.824,-10.374c0.481,-0.864 1.032,-1.701 1.098,-2.734c-0.076,-0.561 0.005,-1.081 0.299,-1.584c2.062,-3.512 3.929,-7.133 5.704,-10.792c1.581,-3.258 3.549,-6.336 4.671,-9.815c1.728,-5.357 1.621,-10.943 2.034,-16.455c0.234,-3.119 0.308,-6.276 0.799,-9.344c1.05,-6.558 0.186,-13.026 -0.306,-19.531c-0.171,-2.278 -0.898,-4.557 -0.252,-6.87c-0.024,-2.699 -0.554,-5.348 -0.858,-8.017c-0.969,-8.513 -2.035,-17.015 -3.077,-25.52c-0.084,-0.683 -0.129,-1.447 -0.851,-1.87c-0.315,-1.027 -0.625,-0.463 -0.961,-0.005c-1.676,2.277 -4.009,3.478 -6.666,4.29c-10.686,3.265 -21.123,7.221 -31.407,11.581c-1.452,0.617 -2.418,1.655 -2.63,3.321c-0.179,1.415 -0.439,2.825 -0.731,4.221c-2.246,10.751 -4.613,21.448 -5.474,32.469c-0.803,10.294 -2.657,20.478 -6.45,30.212c-1.65,4.235 -4.438,6.845 -8.895,7.66c-0.656,0.121 -1.32,0.232 -1.861,0.624c-1.547,1.117 -3.275,1.407 -5.148,1.424c-1.798,0.019 -3.623,0.167 -5.215,1.2c-0.007,0.226 0.037,0.474 0.234,0.571c1.977,0.984 3.651,2.42 5.472,3.639c0.693,0.046 1.045,0.538 1.373,1.055c2.122,3.342 3.613,6.883 3.584,10.937c-0.021,2.901 -0.247,3.169 -2.983,4.037c-3.084,0.976 -6.149,2.011 -9.247,2.943c-0.763,0.231 -1.648,0.387 -1.905,1.364c2.352,2.725 5.196,4.196 8.722,2.464c1.419,-0.696 3.03,-0.99 4.532,-1.53c1.144,-0.409 1.731,-0.477 1.366,1.11c-0.686,2.979 -0.557,6.032 -0.336,9.049c0.248,3.376 1.455,6.4 3.842,8.916c2.765,2.917 5.348,5.992 7.725,9.242c0.962,1.314 1.228,2.629 0.795,4.181c-2.076,7.434 -2.325,14.957 -1.12,22.563c0.558,3.528 0.471,3.465 4.121,2.99c3.597,-0.471 7.218,-0.751 10.826,-1.15c1.182,-0.129 1.754,0.02 1.372,1.475c-0.562,2.136 -0.536,4.356 -0.529,6.562c0.006,1.518 0.728,2.489 2.078,3.059c1.545,0.657 3.158,0.901 4.833,0.91c4.252,0.026 8.442,-0.648 12.653,-1.074c6.018,-0.606 12.033,-1.232 18.047,-1.872c4.503,-0.48 8.992,-0.541 13.492,0.072c6.22,0.845 12.339,2.22 18.468,3.52c1.175,0.247 2.012,0.047 2.841,-0.722c4.046,-3.764 8.965,-4.245 14.064,-3.401c6.725,1.117 13.409,2.499 20.275,2.473c7.765,-0.032 15.557,-0.395 23.289,0.1c6.028,0.387 11.126,-1.467 16.13,-4.279c1.507,-0.847 2.282,-2.138 2.312,-3.912c0.15,-9.121 -4.757,-16.877 -13.268,-20.13c-2.948,-1.128 -4.401,-2.591 -4.703,-5.793c-0.193,-2.061 0.315,-3.239 1.809,-4.501c4.835,-4.085 9.627,-8.228 14.036,-12.786c3.164,-3.271 4.931,-7.213 5.782,-11.652c0.512,-2.65 0.224,-5.395 1.061,-7.993c0.395,-0.533 0.087,-1.053 -0.049,-1.561" style="fill:#080808;"/><path d="M205.268,150.435l-2.188,13.558l22.744,2.186l-4.811,-9.622" style="fill:#fefefe;"/><path d="M192.641,123.911c-0.029,2.689 -0.158,4.821 -0.718,6.901c-0.724,2.695 -2.386,3.515 -4.916,2.357c-2.785,-1.274 -4.853,-3.496 -7.087,-5.491c-0.466,-0.414 -0.769,-0.842 -1.638,-0.575c-0.939,0.29 -2.082,0.25 -3.051,0.014c-0.851,-0.207 -1.251,0.118 -1.754,0.6c-1.841,1.769 -3.713,3.5 -5.89,4.859c-3.363,2.099 -5.453,1.29 -6.25,-2.54c-0.789,-3.79 -0.743,-7.599 0.154,-11.38c0.192,-0.808 0.479,-1.578 1.066,-2.185c0.733,-0.765 1.581,-1.09 2.67,-0.789c2.43,0.669 4.235,2.306 6.084,3.867c0.971,0.82 1.725,2.074 2.827,2.523c1.053,0.428 2.465,-0.127 3.649,0.108c1.248,0.245 1.918,-0.307 2.679,-1.063c1.582,-1.563 3.245,-3.038 5.129,-4.238c0.347,-0.22 0.696,-0.439 1.063,-0.617c2.833,-1.379 4.506,-0.607 5.313,2.455c0.178,0.675 0.353,1.359 0.425,2.048c0.13,1.226 0.299,2.454 0.245,3.146" style="fill:#df0024;"/></g></svg>